<svg width="42" height="32" viewBox="0 0 42 32" fill="none" xmlns="http://www.w3.org/2000/svg">
<path d="M39.0922 24.6085C39.1544 26.4651 38.0237 28.2193 36.2648 28.8369C35.4958 29.1067 34.7254 29.0811 33.9285 29.0811H22.4463C21.8638 29.0811 21.28 29.0875 20.6963 29.0811C19.7233 29.0824 18.7687 28.8145 17.9366 28.3065C17.1046 27.7985 16.427 27.0699 15.9778 26.2003C15.5287 25.3308 15.3252 24.3536 15.3897 23.3755C15.4542 22.3974 15.7841 21.4559 16.3435 20.6538C17.6798 18.6937 20.1506 17.9687 22.3663 18.6541C22.7915 18.7819 23.2064 18.5595 23.4412 18.213C24.8714 16.1058 27.4793 14.9628 29.9856 15.4576C31.1302 15.6833 32.1943 16.2126 33.0681 16.991C33.9419 17.7693 34.5938 18.7685 34.9564 19.8854C34.98 20.0579 35.058 20.2182 35.1789 20.3428C35.2997 20.4673 35.4571 20.5494 35.6277 20.5771C37.5325 21.0016 39.0249 22.596 39.0922 24.6085Z" fill="white"/>
<path d="M38.1429 19.573C38.7088 19.9408 39.2123 20.398 39.634 20.927C39.4873 21.2382 39.3221 21.5401 39.1391 21.831C38.7673 21.2845 38.2962 20.8137 37.7507 20.4437C37.9017 20.1632 38.0327 19.8722 38.1429 19.573Z" fill="#231815"/>
<path d="M33.1697 10.6063C36.02 11.2239 38.3169 13.606 38.558 16.5915C38.6403 17.6038 38.4999 18.6219 38.1469 19.5732C37.6703 19.2625 37.153 19.0202 36.6101 18.8533C35.5504 16.1683 33.1951 14.0701 30.3208 13.5753C28.8262 13.3138 27.2895 13.4605 25.8703 14.0001C24.4511 14.5398 23.2013 15.4527 22.251 16.6439C21.1225 16.4006 19.9528 16.4298 18.8377 16.7291C17.7225 17.0284 16.6935 17.5894 15.8347 18.3662C15.0682 19.0749 14.4628 19.9422 14.0597 20.9085C13.6567 21.8749 13.4657 22.9175 13.4997 23.9652C12.7091 23.9652 11.9198 23.9729 11.1304 23.9652C8.96544 23.9588 6.88999 23.0939 5.35304 21.5576C3.8161 20.0213 2.94124 17.9372 2.91772 15.756C2.89421 13.5748 3.72392 11.4719 5.22738 9.90237C6.73084 8.3328 8.78716 7.42269 10.9515 7.36893C11.8869 7.35597 12.8182 7.49588 13.7091 7.78319C14.1317 7.91105 14.5505 7.68857 14.784 7.34207C16.9781 4.08164 20.9921 2.33251 24.8538 3.08688C26.6166 3.43226 28.2554 4.24729 29.5996 5.44717C30.9439 6.64704 31.9444 8.18793 32.4971 9.90951C32.519 10.0835 32.5965 10.2455 32.7178 10.3712C32.8392 10.4969 32.9978 10.5794 33.1697 10.6063Z" fill="white"/>
<path d="M38.1409 19.5753C38.0308 19.8745 37.8998 20.1655 37.749 20.4461C37.4558 20.2466 37.1435 20.0774 36.8168 19.941C36.8664 19.7632 36.8602 19.5743 36.799 19.4002C36.7407 19.216 36.676 19.0345 36.605 18.8555C37.1476 19.0223 37.6646 19.2646 38.1409 19.5753Z" fill="#231815"/>
<path d="M36.798 19.3988C36.8591 19.5729 36.8653 19.7618 36.8157 19.9396C36.5141 19.8139 36.201 19.718 35.881 19.6532C35.7888 19.3536 35.6778 19.0602 35.5487 18.7748C35.7339 18.6979 35.9385 18.6818 36.1334 18.7288C36.2932 18.7646 36.4492 18.8055 36.6039 18.8566C36.6749 19.0339 36.7396 19.2147 36.798 19.3988Z" fill="#231815"/>
<path d="M35.8823 19.6528C36.2026 19.7176 36.5158 19.8135 36.8176 19.9392C36.5905 20.7 35.2757 20.8777 34.9648 19.9085L34.9572 19.8855C34.9252 19.6608 34.9655 19.4317 35.0722 19.2318C35.1788 19.0318 35.3462 18.8715 35.5498 18.7744C35.679 19.0598 35.7901 19.3532 35.8823 19.6528Z" fill="#231815"/>
<path d="M34.9653 19.9093C35.2763 20.8785 36.591 20.7007 36.8181 19.94C37.1451 20.0763 37.4576 20.2456 37.7509 20.445C38.295 20.8154 38.7648 21.2861 39.1354 21.8323C39.3184 21.5414 39.4837 21.2395 39.6303 20.9283C40.4673 21.9748 40.9455 23.2663 40.9932 24.6094C41.0808 27.2791 39.3892 29.7072 36.9247 30.6304C35.9095 31.0139 34.8549 30.9999 33.7902 30.9999H21.2991C19.9349 30.9999 18.6341 30.826 17.393 30.1956C16.5411 29.7525 15.7851 29.1431 15.169 28.403C14.5529 27.6628 14.0889 26.8066 13.8042 25.8842H14.8042C14.5828 25.2682 14.4586 24.621 14.4362 23.9663C14.4362 23.8883 14.4362 23.8103 14.4362 23.7323C14.4362 22.0592 15.0959 20.4545 16.2701 19.2714C17.4443 18.0883 19.037 17.4237 20.6976 17.4237C21.3528 17.4252 22.0039 17.5287 22.6278 17.7305C23.3602 16.62 24.3742 15.7272 25.5646 15.1447C26.755 14.5621 28.0784 14.3111 29.3975 14.4177C30.7166 14.5243 31.9834 14.9846 33.0665 15.7508C34.1495 16.517 35.0093 17.5612 35.5567 18.7752C35.3531 18.8723 35.1857 19.0326 35.079 19.2325C34.9724 19.4325 34.9321 19.6616 34.9641 19.8863C34.6014 18.7694 33.9496 17.7702 33.0758 16.9919C32.202 16.2135 31.1379 15.6842 29.9933 15.4585C27.4869 14.9636 24.8791 16.1067 23.4489 18.2139C23.2141 18.5604 22.7991 18.7854 22.374 18.655C20.1621 17.9748 17.6874 18.6946 16.3512 20.6547C15.7918 21.4568 15.4619 22.3983 15.3974 23.3764C15.3329 24.3545 15.5363 25.3317 15.9855 26.2012C16.4346 27.0708 17.1122 27.7993 17.9443 28.3074C18.7764 28.8154 19.731 29.0833 20.7039 29.082C21.2877 29.0884 21.8714 29.082 22.4539 29.082H33.9323C34.7293 29.082 35.4996 29.1075 36.2686 28.8378C38.0275 28.2202 39.1582 26.466 39.096 24.6094C39.0288 22.5969 37.5364 21.0025 35.6316 20.578C35.4609 20.5503 35.3036 20.4682 35.1827 20.3437C35.0619 20.2191 34.9839 20.0588 34.9603 19.8863L34.9653 19.9093Z" fill="#231815"/>
<path d="M34.3356 9.42847C34.7086 10.6086 32.8711 11.1098 32.5005 9.93992C32.5005 9.93097 32.4942 9.92201 32.4916 9.91306C32.4079 9.31468 32.8939 8.59227 33.6719 8.76232C33.8305 8.79684 33.9891 8.83648 34.1465 8.87995C34.2137 9.05896 34.2772 9.2418 34.3356 9.42847Z" fill="#231815"/>
<path d="M33.1708 10.6071C32.9986 10.5804 32.8397 10.498 32.7181 10.3723C32.5965 10.2466 32.5189 10.0844 32.4969 9.91024C32.4969 9.91919 32.5033 9.92814 32.5058 9.93709C32.8764 11.1096 34.714 10.6084 34.3409 9.42565C34.2825 9.23897 34.214 9.05613 34.1518 8.87329C34.7936 9.04978 35.4134 9.29899 35.9995 9.61616C38.9995 11.2477 40.8218 14.6909 40.4411 18.1099C40.3334 19.0863 40.0626 20.0373 39.6403 20.9228C39.2186 20.3938 38.7152 19.9366 38.1492 19.5688C38.5023 18.6175 38.6427 17.5994 38.5604 16.5871C38.3129 13.6067 36.016 11.2246 33.1708 10.6071Z" fill="#231815"/>
<path d="M22.8731 16.8033C22.665 16.7394 22.4556 16.6857 22.2462 16.6396C23.1965 15.4484 24.4463 14.5355 25.8655 13.9958C27.2847 13.4562 28.8214 13.3095 30.316 13.571C33.1903 14.0658 35.5457 16.164 36.6053 18.8491C36.4505 18.8005 36.2944 18.7595 36.1345 18.7212C35.9395 18.6742 35.7348 18.6903 35.5495 18.7672C35.0021 17.5533 34.1423 16.5091 33.0592 15.7428C31.9762 14.9766 30.7094 14.5164 29.3903 14.4098C28.0711 14.3032 26.7477 14.5542 25.5573 15.1367C24.367 15.7192 23.353 16.6121 22.6206 17.7226C22.3361 17.6293 22.0451 17.5575 21.75 17.5078L21.7982 17.238L22.8731 16.8033Z" fill="#231815"/>
<path d="M22.8731 16.8024L21.7988 17.243C21.9409 17.0335 22.0901 16.8322 22.2465 16.6389C22.4558 16.6849 22.6651 16.7385 22.8731 16.8024Z" fill="#231815"/>
<path d="M14.8021 25.8832H13.8027C13.7 25.5522 13.6228 25.2136 13.5719 24.8706C13.5274 24.5707 13.5012 24.2684 13.4933 23.9653H14.4343C14.4567 24.6201 14.5808 25.2673 14.8021 25.8832Z" fill="#231815"/>
<path d="M14.2095 5.936L13.1353 6.3753C13.2765 6.16586 13.4232 5.96069 13.5753 5.75977C13.7884 5.81085 13.999 5.86959 14.2095 5.936Z" fill="#231815"/>
<path d="M32.4912 9.9101C31.9386 8.18829 30.9381 6.64714 29.5939 5.44702C28.2497 4.24691 26.6108 3.43169 24.8478 3.0862C20.9861 2.33183 16.9721 4.08095 14.778 7.34139C14.5445 7.68789 14.1257 7.91548 13.7031 7.78251C12.8122 7.49519 11.8809 7.35529 10.9455 7.36824C8.78117 7.42201 6.72485 8.33212 5.22139 9.90169C3.71794 11.4713 2.88822 13.5741 2.91174 15.7553C2.93525 17.9365 3.81011 20.0206 5.34706 21.5569C6.884 23.0932 8.95945 23.9581 11.1244 23.9645C11.9138 23.9722 12.7031 23.9645 13.4937 23.9645C13.5016 24.2676 13.5279 24.5699 13.5724 24.8698C13.6233 25.2128 13.7005 25.5514 13.8034 25.8824H12.1156C10.2983 25.8824 8.56226 25.7085 6.87444 24.9388C3.86937 23.5681 1.63207 20.6235 1.12445 17.3362C0.602881 13.962 1.73486 10.4714 4.25389 8.15202C5.49489 7.01557 6.99351 6.20301 8.61852 5.7855C10.2435 5.36799 11.9453 5.35828 13.5749 5.7572C13.4227 5.95837 13.2759 6.1638 13.1346 6.37349L14.2095 5.93365C13.9988 5.86716 13.7881 5.80579 13.5749 5.7572C15.1917 3.58494 17.4976 2.03555 20.1093 1.36658C22.7211 0.697609 25.4814 0.949343 27.9315 2.07994C30.83 3.38412 33.0508 5.90041 34.1498 8.87444C33.9924 8.83096 33.8338 8.79133 33.6752 8.75681C32.8934 8.58419 32.4087 9.31172 32.4912 9.9101Z" fill="#231815"/>
<path d="M13.5005 23.9653C13.4661 22.9169 13.6571 21.8734 14.0603 20.9063C14.4636 19.9393 15.0696 19.0715 15.8368 18.3624C16.6948 17.5864 17.7227 17.0258 18.8366 16.7262C19.9506 16.4267 21.1191 16.3968 22.2467 16.6389C22.091 16.8315 21.9417 17.0331 21.7987 17.2437L21.7505 17.5134C21.4007 17.4516 21.0461 17.4208 20.6909 17.4214C19.0302 17.4214 17.4376 18.086 16.2634 19.2691C15.0891 20.4522 14.4295 22.0569 14.4295 23.73C14.4295 23.808 14.4295 23.886 14.4295 23.964H13.5005V23.9653Z" fill="#231815"/>
<path d="M13.5749 5.75971C11.9453 5.36078 10.2435 5.3705 8.61852 5.78801C6.99352 6.20551 5.49489 7.01808 4.25389 8.15453C1.73486 10.4739 0.602881 13.9645 1.12445 17.3387C1.63207 20.626 3.86937 23.5706 6.87445 24.9413C8.55972 25.7085 10.3008 25.8849 12.1156 25.8849H13.8034" stroke="#231815" stroke-miterlimit="10"/>
<path d="M13.5753 5.75977C13.7884 5.81085 13.999 5.86959 14.2095 5.936L13.1353 6.3753C13.2765 6.16586 13.4232 5.96069 13.5753 5.75977Z" stroke="#231815" stroke-miterlimit="10"/>
<path d="M34.1457 8.87606C33.0506 5.90203 30.8298 3.38574 27.9275 2.08156C25.4778 0.951957 22.7183 0.700759 20.1074 1.3697C17.4965 2.03863 15.1912 3.58744 13.5747 5.75882" stroke="#231815" stroke-miterlimit="10"/>
<path d="M13.4997 23.9652C12.7091 23.9652 11.9198 23.9729 11.1304 23.9652C8.96544 23.9588 6.88999 23.0939 5.35304 21.5576C3.8161 20.0213 2.94124 17.9372 2.91772 15.756C2.89421 13.5748 3.72392 11.4719 5.22738 9.90237C6.73084 8.3328 8.78716 7.42269 10.9515 7.36893C11.8869 7.35597 12.8182 7.49588 13.7091 7.78319C14.1317 7.91105 14.5505 7.68857 14.784 7.34207C16.9781 4.08164 20.9921 2.33251 24.8538 3.08688C26.6166 3.43226 28.2554 4.24729 29.5996 5.44717C30.9439 6.64704 31.9444 8.18793 32.4971 9.90951" stroke="#231815" stroke-miterlimit="10"/>
<path d="M32.4905 9.90894C32.5124 10.0831 32.5901 10.2453 32.7117 10.371C32.8332 10.4967 32.9921 10.5791 33.1643 10.6058C36.0146 11.2233 38.3115 13.6054 38.5527 16.5909C38.6349 17.6032 38.4945 18.6213 38.1415 19.5726" stroke="#231815" stroke-miterlimit="10"/>
<path d="M39.6326 20.9285C40.0549 20.043 40.3256 19.0919 40.4334 18.1155C40.8141 14.6966 38.993 11.2533 35.9918 9.62177C35.4057 9.30461 34.7858 9.05539 34.144 8.87891" stroke="#231815" stroke-miterlimit="10"/>
<path d="M32.4914 9.91124C32.4914 9.92019 32.4978 9.92915 32.5003 9.9381C32.8708 11.1106 34.7084 10.6094 34.3353 9.42666C34.2769 9.23998 34.2084 9.05714 34.1462 8.8743C33.9889 8.83083 33.8302 8.79119 33.6716 8.75667C32.8937 8.58533 32.4089 9.31286 32.4914 9.91124Z" stroke="#231815" stroke-miterlimit="10"/>
<path d="M34.9574 19.8867L34.965 19.9098C35.2759 20.8789 36.5907 20.7012 36.8178 19.9404C36.8674 19.7626 36.8612 19.5737 36.8001 19.3996C36.7417 19.2155 36.677 19.0339 36.6059 18.8549C35.5462 16.1698 33.1909 14.0717 30.3166 13.5768C28.822 13.3153 27.2853 13.462 25.8661 14.0017C24.4469 14.5414 23.1971 15.4543 22.2468 16.6455M22.2468 16.6455C22.0911 16.8381 21.9418 17.0397 21.7988 17.2503L22.8737 16.8091C22.6656 16.7452 22.4562 16.6915 22.2468 16.6455ZM22.2468 16.6455C21.1183 16.4021 19.9486 16.4313 18.8335 16.7307C17.7183 17.03 16.6893 17.591 15.8305 18.3678C15.065 19.077 14.4604 19.9444 14.0583 20.9107C13.6562 21.8771 13.4659 22.9195 13.5006 23.9668C13.5085 24.2698 13.5348 24.5722 13.5793 24.872C13.6302 25.2151 13.7074 25.5536 13.8102 25.8847C14.0945 26.8061 14.5576 27.6614 15.1726 28.4011C15.7876 29.1408 16.5422 29.75 17.3927 30.1936C18.6326 30.8239 19.9308 30.9978 21.2988 30.9978H33.7937C34.8584 30.9978 35.9092 31.0106 36.9282 30.6283C39.3927 29.7051 41.0843 27.2771 40.9968 24.6073C40.949 23.2642 40.4708 21.9727 39.6338 20.9262C39.2121 20.3972 38.7086 19.94 38.1427 19.5722C37.6661 19.2615 37.1489 19.0192 36.6059 18.8523C36.4511 18.8038 36.295 18.7628 36.1351 18.7245C35.9401 18.6775 35.7354 18.6936 35.5501 18.7705C35.3464 18.8677 35.179 19.0279 35.0724 19.2279C34.9657 19.4278 34.9254 19.6569 34.9574 19.8816" stroke="#231815" stroke-miterlimit="10"/>
<path d="M34.9564 19.8854C34.98 20.0579 35.058 20.2182 35.1789 20.3428C35.2997 20.4673 35.4571 20.5494 35.6277 20.5771C37.5313 21.0016 39.0249 22.596 39.0922 24.6085C39.1544 26.4651 38.0237 28.2193 36.2648 28.8369C35.4957 29.1067 34.7254 29.0811 33.9285 29.0811H22.4463C21.8638 29.0811 21.28 29.0875 20.6963 29.0811C19.7233 29.0824 18.7687 28.8145 17.9366 28.3065C17.1046 27.7985 16.427 27.0699 15.9778 26.2003C15.5287 25.3308 15.3252 24.3536 15.3897 23.3755C15.4542 22.3974 15.7841 21.4559 16.3435 20.6538C17.6798 18.6937 20.1506 17.9687 22.3663 18.6541C22.7915 18.7819 23.2064 18.5595 23.4412 18.213C24.8714 16.1058 27.4793 14.9628 29.9856 15.4576C31.1302 15.6833 32.1943 16.2126 33.0681 16.991C33.9419 17.7693 34.5938 18.7685 34.9564 19.8854Z" stroke="#231815" stroke-miterlimit="10"/>
</svg>
