<?xml version="1.0" ?><svg id="Layer_1" style="enable-background:new 0 0 60 60;" version="1.1" viewBox="0 0 60 60" xml:space="preserve" xmlns="http://www.w3.org/2000/svg" xmlns:xlink="http://www.w3.org/1999/xlink"><path d="M53.98,5H30H6.02c-0.55,0-1,0.45-1,1v25.52v5.24v17.22c0,0.54,0.43,0.98,0.97,1C6.48,54.99,6.96,55,7.43,55  c8.47,0,12.15-2.56,12.31-2.68c0.23-0.17,0.38-0.43,0.41-0.71c0.03-0.28-0.07-0.57-0.26-0.78c-3.9-4.25-5.27-8.28-5.73-10.92  c-0.1-0.54-0.61-0.91-1.16-0.81c-0.54,0.1-0.91,0.61-0.81,1.16c0.47,2.7,1.8,6.71,5.38,10.96c-1.55,0.7-4.91,1.82-10.55,1.78V37.76  h3.63c2,0,3.62-1.62,3.62-3.62c0-0.62-0.17-1.2-0.45-1.71C24.23,28.29,28.38,18.13,30,11.7c1.62,6.43,5.77,16.6,16.17,20.73  c-0.28,0.51-0.45,1.09-0.45,1.71c0,2,1.63,3.62,3.62,3.62h3.63V53c-5.63,0.05-9-1.08-10.55-1.78c2.82-3.35,4.66-7.05,5.35-10.79  c0.1-0.54-0.26-1.06-0.8-1.17c-0.54-0.1-1.06,0.26-1.17,0.8c-0.7,3.78-2.62,7.4-5.7,10.76c-0.19,0.21-0.29,0.49-0.26,0.78  c0.03,0.28,0.18,0.54,0.41,0.71C40.42,52.44,44.1,55,52.57,55c0.46,0,0.95-0.01,1.44-0.02c0.54-0.02,0.97-0.46,0.97-1V36.76v-5.24V6  C54.98,5.45,54.53,5,53.98,5z M52.98,30.52h-1.11c-4.32-6.47-4.84-19.8-4.9-23.52h6.01V30.52z M49.43,30.52  C40.11,24.08,39.09,10.7,38.99,7h5.97c0.04,3.67,0.5,16.24,4.56,23.52H49.43z M10.57,30.52h-0.09c4.06-7.28,4.51-19.85,4.56-23.52  h5.97C20.91,10.7,19.89,24.08,10.57,30.52z M13.03,7c-0.06,3.72-0.58,17.04-4.9,23.52H7.02V7H13.03z M10.65,35.76H7.02v-3.24h3.63  c0.89,0,1.62,0.73,1.62,1.62S11.55,35.76,10.65,35.76z M14.32,30.04c7.8-7.47,8.63-19.44,8.69-23.03h5.87  C28.37,10.93,25.75,24.64,14.32,30.04z M31.12,7h5.87c0.07,3.6,0.9,15.57,8.7,23.03C34.25,24.64,31.64,10.93,31.12,7z M49.35,35.76  c-0.89,0-1.62-0.73-1.62-1.62s0.73-1.62,1.62-1.62h3.63v3.24H49.35z"/></svg>