<svg width="60" height="54" viewBox="0 0 60 54" fill="none" xmlns="http://www.w3.org/2000/svg">
<path d="M53.9771 19.255C53.7837 16.2086 52.4381 13.3501 50.2136 11.2597C47.9891 9.16937 45.0525 8.00395 42 8.00008C41.4383 8.00003 40.8772 8.03886 40.3208 8.11628C38.9789 5.51591 36.9052 3.36514 34.3556 1.92916C31.8059 0.493191 28.8918 -0.165192 25.9724 0.0352008C23.0531 0.235593 20.2562 1.286 17.9267 3.05689C15.5972 4.82779 13.8369 7.24174 12.8628 10.0011C10.7659 10.0395 8.7677 10.8988 7.2975 12.3945C5.82729 13.8901 5.00239 15.9028 5.00002 18.0001C5.00019 18.3062 5.01813 18.612 5.05372 18.9161C3.54359 19.6611 2.27086 20.8121 1.37823 22.24C0.485597 23.6679 0.00835837 25.3162 2.27512e-05 27.0001C-0.00356519 28.5846 0.417282 30.1411 1.21882 31.5079C1.30716 31.6577 1.43306 31.782 1.58409 31.8683C1.73513 31.9546 1.90606 32 2.08002 32.0001H57.74C57.9009 32.0002 58.0594 31.9614 58.202 31.8871C58.3447 31.8128 58.4673 31.7051 58.5594 31.5733C59.4994 30.2337 60.0025 28.6365 60 27.0001C59.9936 25.2249 59.399 23.5019 58.3093 22.1005C57.2195 20.6991 55.6961 19.6985 53.9771 19.255Z" fill="white"/>
<path d="M10 43C12.2091 43 14 41.2091 14 39C14 36.7909 12.2091 35 10 35C7.79086 35 6 36.7909 6 39C6 41.2091 7.79086 43 10 43Z" fill="white"/>
<path d="M18 54C20.2091 54 22 52.2091 22 50C22 47.7909 20.2091 46 18 46C15.7909 46 14 47.7909 14 50C14 52.2091 15.7909 54 18 54Z" fill="white"/>
<path d="M39 54C41.2091 54 43 52.2091 43 50C43 47.7909 41.2091 46 39 46C36.7909 46 35 47.7909 35 50C35 52.2091 36.7909 54 39 54Z" fill="white"/>
<path d="M50 43C52.2091 43 54 41.2091 54 39C54 36.7909 52.2091 35 50 35C47.7909 35 46 36.7909 46 39C46 41.2091 47.7909 43 50 43Z" fill="white"/>
<path d="M30 43C32.2091 43 34 41.2091 34 39C34 36.7909 32.2091 35 30 35C27.7909 35 26 36.7909 26 39C26 41.2091 27.7909 43 30 43Z" fill="white"/>
<path d="M53.9771 19.255C53.7837 16.2086 52.4381 13.3501 50.2136 11.2597C47.9891 9.16937 45.0525 8.00395 42 8.00008C41.4383 8.00003 40.8772 8.03886 40.3208 8.11628C38.9789 5.51591 36.9052 3.36514 34.3556 1.92916C31.8059 0.493191 28.8918 -0.165192 25.9724 0.0352008C23.0531 0.235593 20.2562 1.286 17.9267 3.05689C15.5972 4.82779 13.8369 7.24174 12.8628 10.0011C10.7659 10.0395 8.7677 10.8988 7.2975 12.3945C5.82729 13.8901 5.00239 15.9028 5.00002 18.0001C5.00019 18.3062 5.01813 18.612 5.05372 18.9161C3.54359 19.6611 2.27086 20.8121 1.37823 22.24C0.485597 23.6679 0.00835837 25.3162 2.27512e-05 27.0001C-0.00356519 28.5846 0.417282 30.1411 1.21882 31.5079C1.30716 31.6577 1.43306 31.782 1.58409 31.8683C1.73513 31.9546 1.90606 32 2.08002 32.0001H57.74C57.9009 32.0002 58.0594 31.9614 58.202 31.8871C58.3447 31.8128 58.4673 31.7051 58.5594 31.5733C59.4994 30.2337 60.0025 28.6365 60 27.0001C59.9936 25.2249 59.399 23.5019 58.3093 22.1005C57.2195 20.6991 55.6961 19.6985 53.9771 19.255ZM57.1934 30.0001H2.67872C2.22997 29.0638 1.99799 28.0384 2.00002 27.0001C2.00754 25.5801 2.44362 24.1955 3.25118 23.0276C4.05873 21.8596 5.20012 20.9627 6.52592 20.4542C6.75067 20.3686 6.93706 20.2049 7.05093 19.9931C7.1648 19.7813 7.19852 19.5355 7.14592 19.3009C6.94899 18.4239 6.95199 17.5138 7.15471 16.6381C7.35742 15.7625 7.75465 14.9436 8.31693 14.2424C8.87921 13.5412 9.59213 12.9755 10.4028 12.5873C11.2135 12.1992 12.1012 11.9984 13 12.0001C13.1579 11.9997 13.3157 12.0079 13.4727 12.0245C13.7054 12.0486 13.9393 11.9908 14.1339 11.861C14.3286 11.7313 14.4719 11.5377 14.5391 11.3136C15.2899 8.7706 16.8008 6.51821 18.8689 4.85889C20.937 3.19956 23.4633 2.21275 26.1086 2.03096C28.7538 1.84916 31.3914 2.4811 33.667 3.8419C35.9427 5.2027 37.7475 7.22722 38.8391 9.64358C38.9328 9.85074 39.0944 10.0197 39.2972 10.1225C39.5 10.2253 39.7318 10.2558 39.9543 10.209C41.4163 9.90541 42.9277 9.93273 44.3777 10.2889C45.8278 10.6452 47.1798 11.3212 48.3347 12.2676C49.4896 13.2141 50.4182 14.4069 51.0524 15.7586C51.6866 17.1104 52.0104 18.587 52 20.0801C52.0002 20.321 52.0873 20.5537 52.2452 20.7356C52.4032 20.9175 52.6215 21.0362 52.86 21.0701C54.285 21.2789 55.5877 21.9924 56.5311 23.0807C57.4744 24.169 57.9957 25.5598 58 27.0001C58.0018 28.0539 57.7234 29.0892 57.1934 30.0001Z" fill="black"/>
<path d="M10 35C9.20888 35 8.43552 35.2346 7.77772 35.6741C7.11993 36.1136 6.60723 36.7384 6.30448 37.4693C6.00173 38.2002 5.92252 39.0044 6.07686 39.7804C6.2312 40.5563 6.61216 41.269 7.17157 41.8284C7.73098 42.3878 8.44372 42.7688 9.21964 42.9231C9.99556 43.0775 10.7998 42.9983 11.5307 42.6955C12.2616 42.3928 12.8864 41.8801 13.3259 41.2223C13.7654 40.5645 14 39.7911 14 39C13.9989 37.9395 13.5771 36.9227 12.8272 36.1728C12.0773 35.4229 11.0605 35.0011 10 35ZM10 41C9.60444 41 9.21776 40.8827 8.88886 40.6629C8.55996 40.4432 8.30362 40.1308 8.15224 39.7654C8.00087 39.3999 7.96126 38.9978 8.03843 38.6098C8.1156 38.2219 8.30608 37.8655 8.58579 37.5858C8.86549 37.3061 9.22186 37.1156 9.60982 37.0384C9.99778 36.9613 10.3999 37.0009 10.7654 37.1522C11.1308 37.3036 11.4432 37.56 11.6629 37.8889C11.8827 38.2178 12 38.6044 12 39C11.9994 39.5302 11.7885 40.0386 11.4135 40.4135C11.0386 40.7885 10.5302 40.9994 10 41Z" fill="black"/>
<path d="M18 46C17.2089 46 16.4355 46.2346 15.7777 46.6741C15.1199 47.1136 14.6072 47.7384 14.3045 48.4693C14.0017 49.2002 13.9225 50.0044 14.0769 50.7804C14.2312 51.5563 14.6122 52.269 15.1716 52.8284C15.731 53.3878 16.4437 53.7688 17.2196 53.9231C17.9956 54.0775 18.7998 53.9983 19.5307 53.6955C20.2616 53.3928 20.8864 52.8801 21.3259 52.2223C21.7654 51.5645 22 50.7911 22 50C21.9989 48.9395 21.5771 47.9227 20.8272 47.1728C20.0773 46.4229 19.0605 46.0011 18 46ZM18 52C17.6044 52 17.2178 51.8827 16.8889 51.6629C16.56 51.4432 16.3036 51.1308 16.1522 50.7654C16.0009 50.3999 15.9613 49.9978 16.0384 49.6098C16.1156 49.2219 16.3061 48.8655 16.5858 48.5858C16.8655 48.3061 17.2219 48.1156 17.6098 48.0384C17.9978 47.9613 18.3999 48.0009 18.7654 48.1522C19.1308 48.3036 19.4432 48.56 19.6629 48.8889C19.8827 49.2178 20 49.6044 20 50C19.9994 50.5302 19.7885 51.0386 19.4135 51.4135C19.0386 51.7885 18.5302 51.9994 18 52Z" fill="black"/>
<path d="M39 46C38.2089 46 37.4355 46.2346 36.7777 46.6741C36.1199 47.1136 35.6072 47.7384 35.3045 48.4693C35.0017 49.2002 34.9225 50.0044 35.0769 50.7804C35.2312 51.5563 35.6122 52.269 36.1716 52.8284C36.731 53.3878 37.4437 53.7688 38.2196 53.9231C38.9956 54.0775 39.7998 53.9983 40.5307 53.6955C41.2616 53.3928 41.8864 52.8801 42.3259 52.2223C42.7654 51.5645 43 50.7911 43 50C42.9989 48.9395 42.5771 47.9227 41.8272 47.1728C41.0773 46.4229 40.0605 46.0011 39 46ZM39 52C38.6044 52 38.2178 51.8827 37.8889 51.6629C37.56 51.4432 37.3036 51.1308 37.1522 50.7654C37.0009 50.3999 36.9613 49.9978 37.0384 49.6098C37.1156 49.2219 37.3061 48.8655 37.5858 48.5858C37.8655 48.3061 38.2219 48.1156 38.6098 48.0384C38.9978 47.9613 39.3999 48.0009 39.7654 48.1522C40.1308 48.3036 40.4432 48.56 40.6629 48.8889C40.8827 49.2178 41 49.6044 41 50C40.9994 50.5302 40.7885 51.0386 40.4135 51.4135C40.0386 51.7885 39.5302 51.9994 39 52Z" fill="black"/>
<path d="M50 35C49.2089 35 48.4355 35.2346 47.7777 35.6741C47.1199 36.1136 46.6072 36.7384 46.3045 37.4693C46.0017 38.2002 45.9225 39.0044 46.0769 39.7804C46.2312 40.5563 46.6122 41.269 47.1716 41.8284C47.731 42.3878 48.4437 42.7688 49.2196 42.9231C49.9956 43.0775 50.7998 42.9983 51.5307 42.6955C52.2616 42.3928 52.8864 41.8801 53.3259 41.2223C53.7654 40.5645 54 39.7911 54 39C53.9989 37.9395 53.5771 36.9227 52.8272 36.1728C52.0773 35.4229 51.0605 35.0011 50 35ZM50 41C49.6044 41 49.2178 40.8827 48.8889 40.6629C48.56 40.4432 48.3036 40.1308 48.1522 39.7654C48.0009 39.3999 47.9613 38.9978 48.0384 38.6098C48.1156 38.2219 48.3061 37.8655 48.5858 37.5858C48.8655 37.3061 49.2219 37.1156 49.6098 37.0384C49.9978 36.9613 50.3999 37.0009 50.7654 37.1522C51.1308 37.3036 51.4432 37.56 51.6629 37.8889C51.8827 38.2178 52 38.6044 52 39C51.9994 39.5302 51.7885 40.0386 51.4135 40.4135C51.0386 40.7885 50.5302 40.9994 50 41Z" fill="black"/>
<path d="M30 35C29.2089 35 28.4355 35.2346 27.7777 35.6741C27.1199 36.1136 26.6072 36.7384 26.3045 37.4693C26.0017 38.2002 25.9225 39.0044 26.0769 39.7804C26.2312 40.5563 26.6122 41.269 27.1716 41.8284C27.731 42.3878 28.4437 42.7688 29.2196 42.9231C29.9956 43.0775 30.7998 42.9983 31.5307 42.6955C32.2616 42.3928 32.8864 41.8801 33.3259 41.2223C33.7654 40.5645 34 39.7911 34 39C33.9989 37.9395 33.5771 36.9227 32.8272 36.1728C32.0773 35.4229 31.0605 35.0011 30 35ZM30 41C29.6044 41 29.2178 40.8827 28.8889 40.6629C28.56 40.4432 28.3036 40.1308 28.1522 39.7654C28.0009 39.3999 27.9613 38.9978 28.0384 38.6098C28.1156 38.2219 28.3061 37.8655 28.5858 37.5858C28.8655 37.3061 29.2219 37.1156 29.6098 37.0384C29.9978 36.9613 30.3999 37.0009 30.7654 37.1522C31.1308 37.3036 31.4432 37.56 31.6629 37.8889C31.8827 38.2178 32 38.6044 32 39C31.9994 39.5302 31.7885 40.0386 31.4135 40.4135C31.0386 40.7885 30.5302 40.9994 30 41Z" fill="black"/>
</svg>
